<?xml version="1.0" encoding="UTF-8"?>
<svg id="Layer_2" data-name="Layer 2" xmlns="http://www.w3.org/2000/svg" viewBox="0 0 115 72">
  <defs>
    <style>
      .cls-1 {
        fill: none;
      }

      .cls-2 {
        fill: #377b95;
      }

      .cls-3, .cls-4 {
        fill: #fff;
      }

      .cls-5 {
        fill: #d88f2a;
      }

      .cls-6 {
        fill: #e0a84a;
      }

      .cls-4 {
        font-family: ArialRoundedMTBold, 'Arial Rounded MT Bold';
        font-size: 16px;
      }

      .cls-7 {
        letter-spacing: -.02em;
      }

      .cls-8 {
        letter-spacing: -.01em;
      }

      .cls-9 {
        fill: #cf791c;
      }
    </style>
  </defs>
  <g id="Layer_1-2" data-name="Layer 1">
    <g>
      <ellipse class="cls-2" cx="55" cy="59.09" rx="13" ry="12.91"/>
      <ellipse class="cls-3" cx="55" cy="59.09" rx="7.22" ry="7.17"/>
      <rect class="cls-2" x="48" y="28" width="13" height="11"/>
      <path class="cls-2" d="M59.33,43.13v7.35h-9.39v-7.35c3.08.25,6.23.22,9.39,0Z"/>
      <path class="cls-9" d="M47.1,36.39v2.61h-5.69c-2.22,0-14.06-.22-23.62-9.79-5.37-5.36-8.92-12.53-9.65-20.53-.05-.56-.09-1.12-.1-1.68h31.07l.05.62-23.73.41c.01.18.03.36.05.54.67,7.26,3.45,13.77,7.62,18.66,7.59,8.95,17,9.16,18.76,9.16h5.24Z"/>
      <polygon class="cls-5" points="38.87 4 8 4 8 3 38.79 3 38.87 4"/>
      <path class="cls-5" d="M39.21,8.22l-23.73.35c-.02-.18-.04-.36-.05-.54l19.68-.34,4.05-.07h0s.01.07.01.07l.04.53Z"/>
      <polygon class="cls-6" points="39.16 7.62 39.11 7 40.71 7 40.75 7.6 39.78 7.62 39.16 7.63 39.16 7.62"/>
      <path class="cls-6" d="M101.91,7.9c-1.06,15.61-12.85,28.28-28.05,30.68-1.72.28-3.48.42-5.27.42h-21.49v-2.61h-5.24c-1.76,0-11.17-.21-18.76-9.16-3.91-4.58-6.6-10.59-7.47-17.31-.06-.45-.11-.9-.15-1.35l23.73-.35-.04-.53h2.48c-.05.1-.09.2-.12.31.05-.04.1-.07.16-.1h60.22Z"/>
      <polygon class="cls-6" points="39.8 3.01 39.87 4 38.87 4 38.79 3 39.8 3 39.8 3.01"/>
      <rect class="cls-6" x="90" y="3" width="12" height="1"/>
      <path class="cls-1" d="M81.87,41.59c-6.71,1.45-13.79,2.67-20.87,3.17v-5.76h7.59c1.79,0,3.55-.14,5.27-.42,2.66,1.11,5.21,2.41,8.01,3.01Z"/>
      <path class="cls-1" d="M115,3l-2.07,4.17h-10.97c0-.06.01-.11.01-.17.02-.46.03-.94.03-1.41v-2.45c3.5-.02,6.98-.05,10.47-.11.84,0,1.69-.02,2.53-.03Z"/>
      <polygon class="cls-9" points="39.16 7.62 39.11 7 40.71 7 40.75 7.6 39.78 7.62 39.16 7.63 39.16 7.62"/>
      <path class="cls-9" d="M73.86,38.58c-1.72.28-3.48.42-5.27.42h-21.49v-2.61h-5.24c-1.76,0-11.17-.21-18.76-9.16-3.91-4.58-6.6-10.59-7.47-17.31-.06-.45-.11-.9-.15-1.35l23.73-.35-.04-.53h1.91c-.76,1.34,1.34,4.26,1.85,5.22,1.56,2.89,4.12,6,7.18,9.04,2.09,2.08,4.43,4.13,6.83,6.05,1.34,1.07,2.7,2.1,4.06,3.07,2.66,1.91,5.31,3.61,7.73,4.97,1.76,1.01,3.4,1.83,4.85,2.42.09.04.19.08.28.12Z"/>
      <path class="cls-9" d="M39.8,3.01l.07.99h-1l-.08-1c.34,0,.67,0,1.01.01Z"/>
      <path class="cls-9" d="M102,3.14v.86h-12v-.81c4,0,8-.02,12-.05Z"/>
      <polygon class="cls-6" points="39.8 3.01 39.87 4 8 4 8 3 39.8 3 39.8 3.01"/>
      <rect class="cls-6" x="90" y="3" width="12" height="1"/>
      <path class="cls-9" d="M8,4v2c0,.1,0,.2.01.3-.01.24,0,.47.01.7,0,.23.01.46.02.69h31.13v-.06s.61-.01.61-.01l.97-.02-.04-.6h1.62c-.03.05-.06.11-.08.17h59.71c-.01.24-.03.49-.05.73h.05c0-.07.01-.13.01-.21.01-.17.01-.34.01-.52.01-.05.01-.11.01-.17.01-.33.01-.67.01-1v-2H8ZM39.87,6l-.07-.99h0s50.2-.01,50.2-.01v1h-50.13Z"/>
      <path class="cls-6" d="M8,5.59c0,.47.01.94.04,1.41h-.04v-1.41Z"/>
      <path class="cls-6" d="M102,5.59v1.41h-.03c.02-.46.03-.94.03-1.41Z"/>
      <path class="cls-2" d="M59.33,39v4.13c-3.16.22-6.3.24-9.39,0v-4.12h9.39Z"/>
      <path class="cls-1" d="M48,39v5.75c-18.76-1.52-35.86-10.41-44-36.01l4.14-.06c.73,8,4.28,15.17,9.65,20.53,9.56,9.57,21.4,9.79,23.62,9.79h6.59Z"/>
      <path class="cls-9" d="M101.96,7.17c-.01.24-.03.49-.05.73h-60.22c-.06.03-.11.06-.16.1.03-.11.07-.21.12-.31h-2.48v-.06s.61-.01.61-.01l.97-.02-.04-.6h1.62c-.03.05-.06.11-.08.17h59.71Z"/>
      <rect class="cls-9" x="47" y="36.45" width="13" height="2.5"/>
      <polygon class="cls-9" points="97 5 97 7 39 7 39 5 39.8 5 39.8 5.01 39.87 6 90 6 90 5 97 5"/>
      <polygon class="cls-9" points="90 5 90 6 39.87 6 39.8 5.01 39.8 5 90 5"/>
      <path class="cls-6" d="M113,2.5v1c0,.58-.2,1.11-.53,1.53-.45.59-1.17.97-1.97.97h-8.5v-1H8v1H2.5c-1.38,0-2.5-1.12-2.5-2.5v-1C0,1.12,1.12,0,2.5,0h108c1.38,0,2.5,1.12,2.5,2.5Z"/>
    </g>
    <text class="cls-4" transform="translate(13.92 25.04) scale(.9 1)"><tspan class="cls-7" x="0" y="0">Re</tspan><tspan class="cls-8" x="20.22" y="0">v</tspan><tspan x="28.68" y="0">e</tspan><tspan class="cls-8" x="38.19" y="0">n</tspan><tspan x="47.64" y="0">ue ($)</tspan></text>
  </g>
</svg>